<?xml version="1.0" standalone="no"?>
<!DOCTYPE svg PUBLIC "-//W3C//DTD SVG 20010904//EN"
 "http://www.w3.org/TR/2001/REC-SVG-20010904/DTD/svg10.dtd">
<svg version="1.0" xmlns="http://www.w3.org/2000/svg"
 width="500.000000pt" height="500.000000pt" viewBox="0 0 500.000000 500.000000"
 preserveAspectRatio="xMidYMid meet">

<g transform="translate(0.000000,500.000000) scale(0.100000,-0.100000)"
fill="#174552" stroke="none">
<path d="M2046 4189 c1 -3 -23 -11 -55 -16 -32 -6 -88 -23 -125 -38 -36 -14
-71 -23 -77 -19 -7 4 -9 3 -6 -3 9 -14 -40 -46 -55 -37 -6 4 -8 3 -5 -3 4 -6
-5 -19 -19 -28 -15 -9 -40 -32 -56 -51 -17 -19 -34 -32 -38 -29 -4 3 -7 -3 -6
-12 0 -10 -6 -18 -14 -18 -16 0 -60 -73 -63 -105 -1 -22 -29 -36 -49 -24 -7 4
-10 4 -6 -1 4 -4 -15 -18 -41 -32 -27 -13 -71 -47 -98 -76 -26 -28 -51 -51
-54 -50 -4 1 -6 -5 -5 -15 0 -9 -5 -16 -12 -14 -9 2 -12 -4 -7 -17 4 -12 0
-21 -11 -25 -13 -5 -15 -14 -11 -44 4 -21 3 -31 -2 -24 -5 9 -11 -9 -15 -48
-5 -46 -13 -65 -29 -78 -12 -9 -52 -46 -89 -82 -51 -49 -66 -70 -62 -84 4 -11
2 -16 -4 -12 -25 15 -31 -166 -7 -233 13 -39 13 -42 -8 -65 -36 -38 -62 -73
-65 -86 -2 -7 -11 -24 -22 -37 -29 -37 -44 -119 -44 -233 0 -117 16 -184 66
-284 114 -225 307 -350 513 -332 106 9 110 10 146 40 33 28 34 28 150 24 136
-5 139 -6 247 -114 l72 -72 0 -356 c0 -373 0 -374 -42 -342 -34 25 -38 64 -38
364 l0 297 -75 68 -74 68 -132 -7 c-117 -6 -133 -5 -144 10 -11 15 -14 14 -28
-7 -48 -74 -62 -256 -28 -366 26 -85 60 -137 130 -204 73 -70 141 -103 243
-118 l77 -11 27 -65 c17 -40 46 -84 78 -116 45 -47 63 -57 161 -92 102 -37
119 -40 235 -43 158 -5 219 8 348 69 96 46 106 54 152 117 27 37 53 83 57 102
9 35 9 35 73 41 185 18 343 151 395 333 22 75 16 216 -12 295 l-19 54 -160 4
-159 4 -71 -70 -71 -71 -7 -198 c-3 -109 -4 -229 0 -268 8 -85 -7 -143 -46
-187 l-29 -32 -1 361 0 362 73 75 c104 108 107 109 253 115 l125 5 33 -32 c31
-30 38 -32 132 -38 158 -9 260 27 385 135 157 138 242 402 198 614 -16 74 -63
171 -107 217 l-37 39 18 48 c50 132 -28 333 -151 388 -39 18 -39 18 -46 89 -8
90 -49 178 -115 246 -48 49 -134 101 -169 101 -13 0 -27 19 -48 62 -69 147
-263 283 -449 313 -60 10 -195 13 -195 4 0 -4 -12 -9 -28 -12 -76 -15 -144
-50 -196 -102 -30 -29 -52 -56 -49 -59 3 -3 -1 -8 -9 -11 -13 -5 -14 -13 -5
-43 6 -22 11 -181 12 -392 1 -195 3 -395 4 -444 l1 -89 95 96 95 96 0 258 0
258 -25 23 c-47 45 -51 127 -9 173 26 29 78 42 118 29 96 -31 116 -159 34
-218 -17 -12 -18 -32 -18 -267 0 -151 -4 -265 -10 -281 -6 -15 -67 -85 -135
-156 -69 -71 -131 -138 -138 -151 -9 -16 -11 -52 -7 -135 l5 -113 258 257 257
258 0 133 c0 128 -1 133 -23 148 -108 70 -11 246 105 191 71 -34 91 -136 34
-181 -26 -20 -26 -21 -23 -166 2 -142 1 -146 -24 -185 -15 -22 -155 -168 -312
-324 l-285 -285 -2 -780 c0 -429 -5 -784 -9 -788 -5 -5 -24 -7 -42 -5 l-34 3
-3 785 -2 785 -283 285 c-156 157 -296 302 -311 323 -28 37 -28 38 -28 185 0
140 -2 148 -24 175 -29 34 -32 86 -7 127 36 62 119 73 165 21 52 -58 49 -114
-8 -167 l-34 -33 0 -123 0 -124 255 -255 c140 -139 259 -255 265 -257 6 -2 10
38 10 118 l0 122 -121 123 c-185 188 -169 146 -169 459 0 252 -1 266 -20 279
-27 19 -50 66 -50 105 0 53 24 88 75 107 40 16 49 16 82 4 78 -29 96 -139 34
-203 l-31 -32 0 -251 0 -252 98 -96 97 -96 6 453 c4 249 10 467 14 485 18 77
-92 180 -212 198 -12 2 -36 6 -55 10 -40 9 -158 12 -152 4z m-125 -248 c21
-22 29 -39 29 -66 0 -27 -8 -44 -29 -66 -33 -33 -58 -36 -101 -14 -36 19 -50
43 -50 90 0 79 93 113 151 56z m1280 -2 c69 -73 -4 -183 -96 -145 -64 27 -77
106 -24 150 42 36 83 34 120 -5z m-1636 -60 c-13 -24 -25 -40 -25 -36 0 13 41
89 46 84 2 -2 -7 -24 -21 -48z m41 -238 c20 -12 38 -36 49 -65 17 -44 17 -46
-4 -90 -12 -24 -28 -47 -36 -50 -12 -4 -15 -37 -15 -185 l0 -180 97 -93 c435
-415 496 -477 523 -535 38 -80 42 -182 33 -860 l-8 -633 -35 18 -35 17 -8 140
c-4 77 -6 348 -5 603 2 302 0 462 -7 463 -5 0 -53 0 -105 -1 -66 -1 -100 -6
-111 -16 -24 -21 -95 -18 -119 6 -16 16 -32 19 -97 18 -72 -1 -79 -3 -104 -29
-38 -40 -86 -40 -134 2 -30 27 -35 37 -35 76 0 36 6 50 29 74 40 40 106 41
145 3 14 -15 26 -31 26 -35 0 -5 35 -9 78 -9 66 0 82 3 97 20 24 27 84 27 118
0 23 -18 38 -20 119 -18 l93 3 3 35 c4 52 -15 88 -93 173 l-71 76 -260 2 -261
1 -41 -43 c-38 -42 -44 -44 -96 -44 -83 0 -144 54 -153 136 -9 79 63 154 145
154 62 -1 103 -22 127 -68 l20 -37 200 0 200 0 -182 179 -183 179 0 198 0 199
-29 13 c-36 16 -65 82 -56 128 14 77 112 117 181 75z m1903 4 c38 -19 65 -77
58 -122 -7 -44 -33 -84 -58 -90 -18 -5 -19 -17 -19 -167 0 -249 16 -213 -194
-421 l-181 -179 35 -4 c19 -2 112 -1 206 3 l171 7 16 33 c16 33 84 75 122 75
32 0 102 -40 121 -68 12 -17 18 -47 19 -82 0 -68 -26 -109 -88 -139 -56 -27
-107 -15 -159 40 l-37 39 -265 0 c-255 0 -265 -1 -279 -20 -8 -11 -32 -40 -53
-63 -76 -81 -102 -140 -87 -196 5 -19 13 -21 87 -21 77 0 84 2 116 30 45 40
99 41 133 4 23 -25 29 -26 97 -22 58 3 75 8 88 25 55 69 158 50 181 -34 29
-103 -97 -180 -169 -103 -26 28 -33 30 -102 30 -68 0 -76 -2 -97 -26 -20 -23
-28 -25 -64 -20 -23 4 -48 13 -57 21 -16 14 -112 18 -183 8 l-37 -5 0 -586 1
-587 -28 -17 c-15 -10 -36 -18 -46 -18 -17 0 -17 35 -15 708 l3 707 26 56 c28
60 156 192 465 481 l153 143 0 181 c1 153 -1 184 -15 194 -25 22 -46 82 -39
116 15 84 101 127 174 89z m-2202 -385 c66 -24 84 -130 28 -177 -73 -64 -182
11 -158 108 8 33 23 50 58 65 37 16 36 16 72 4z m2470 -10 c45 -27 62 -84 39
-132 -39 -81 -147 -77 -182 8 -20 49 -1 103 46 126 44 23 58 22 97 -2z m-2487
-940 c26 -26 25 -64 -2 -90 -27 -25 -39 -25 -69 -2 -25 21 -30 71 -9 96 17 22
56 20 80 -4z m2494 -3 c36 -26 10 -107 -34 -107 -23 0 -60 37 -60 61 0 53 51
78 94 46z m-1916 -637 c61 -37 67 -98 14 -147 -47 -44 -125 -15 -137 51 -9 45
10 85 47 101 42 18 37 18 76 -5z m1356 -16 c37 -37 36 -91 -2 -127 -46 -44
-110 -30 -141 30 -17 34 -13 59 15 92 35 41 89 43 128 5z"/>
<path d="M1844 3895 c-8 -21 2 -45 19 -45 8 0 20 7 27 15 10 12 10 18 0 30 -7
8 -19 15 -27 15 -7 0 -16 -7 -19 -15z"/>
<path d="M3114 3896 c-10 -26 4 -48 28 -44 17 2 23 10 23 28 0 18 -6 26 -23
28 -13 2 -25 -3 -28 -12z"/>
<path d="M1498 3556 c-16 -36 13 -68 56 -64 29 3 31 6 31 43 0 39 -1 40 -37
43 -32 3 -40 -1 -50 -22z"/>
<path d="M1297 2689 c-29 -17 -39 -56 -22 -88 8 -16 21 -31 30 -35 34 -13 95
34 95 74 0 24 -38 60 -63 60 -12 0 -30 -5 -40 -11z"/>
<path d="M1522 2278 c-19 -19 -14 -56 8 -68 23 -12 54 0 64 26 8 21 8 20 -10
38 -18 19 -45 21 -62 4z"/>
<path d="M3433 3579 c-39 -14 -41 -72 -2 -84 30 -10 58 4 65 31 12 46 -17 70
-63 53z"/>
<path d="M3626 2679 c-36 -28 -36 -82 0 -105 32 -21 68 -11 96 27 16 21 17 30
8 51 -11 23 -47 48 -69 48 -5 0 -20 -9 -35 -21z"/>
<path d="M3416 2274 c-21 -20 -20 -37 2 -57 24 -22 35 -21 55 1 22 25 21 49
-2 62 -27 14 -37 13 -55 -6z"/>
<path d="M1244 3186 c-11 -28 1 -51 25 -51 32 0 49 28 32 49 -17 20 -50 21
-57 2z"/>
<path d="M3700 3179 c-9 -15 -8 -24 1 -35 27 -33 79 1 58 39 -14 23 -46 21
-59 -4z"/>
<path d="M1823 1623 c-7 -2 -13 -16 -13 -30 0 -20 4 -24 23 -21 16 2 22 10 22
27 0 25 -11 33 -32 24z"/>
<path d="M3131 1608 c-11 -28 -1 -41 30 -36 18 2 24 9 24 28 0 35 -41 41 -54
8z"/>
<path d="M2170 3886 c-15 -19 -9 -56 11 -69 9 -5 28 -7 42 -3 31 7 46 48 27
71 -16 19 -64 19 -80 1z"/>
<path d="M2757 3882 c-22 -24 -11 -61 21 -69 31 -7 56 7 60 36 7 47 -48 69
-81 33z"/>
<path d="M1866 3567 c-22 -16 -18 -55 6 -71 13 -8 22 -6 37 8 25 23 26 39 5
60 -19 19 -25 20 -48 3z"/>
<path d="M3075 3549 c-4 -13 0 -27 11 -40 22 -24 29 -24 54 1 16 16 18 25 10
40 -15 28 -66 27 -75 -1z"/>
</g>
</svg>
